<!-- icon666.com - MILLIONS vector ICONS FREE --><svg id="Layer_1" enable-background="new 0 0 511.999 511.999" viewBox="0 0 511.999 511.999" xmlns="http://www.w3.org/2000/svg"><path d="m113.814 390.641c-18.369 0-33.313 14.944-33.313 33.313s14.944 33.313 33.313 33.313 33.313-14.944 33.313-33.313-14.943-33.313-33.313-33.313zm0 51.627c-10.098 0-18.313-8.215-18.313-18.313s8.216-18.313 18.313-18.313 18.313 8.215 18.313 18.313-8.215 18.313-18.313 18.313z" fill="#000000" style="fill: rgb(102, 51, 153);"></path><path d="m379.135 390.641c-18.369 0-33.313 14.944-33.313 33.313s14.944 33.313 33.313 33.313c18.368 0 33.313-14.944 33.313-33.313s-14.945-33.313-33.313-33.313zm0 51.627c-10.098 0-18.313-8.215-18.313-18.313s8.216-18.313 18.313-18.313 18.313 8.215 18.313 18.313-8.216 18.313-18.313 18.313z" fill="#000000" style="fill: rgb(102, 51, 153);"></path><path d="m500.647 383.276 7.295-42.948c.275-1.655.457-3.35.543-5.053.801-16.668-8.24-32.218-23.037-39.617-47.428-23.666-101.841-26.529-118.121-26.837l-40.718-80.96c-11.152-22.193-33.516-35.979-58.361-35.979h-49.972c4.026-32.32-6.337-66.106-31.097-90.867-42.6-42.6-111.914-42.6-154.514 0-30.878 30.878-40.407 77.056-24.275 117.644 1.53 3.85 5.89 5.73 9.74 4.2 3.849-1.53 5.729-5.891 4.199-9.74-13.918-35.018-5.697-74.858 20.943-101.499 36.749-36.75 96.548-36.751 133.299 0 36.748 36.748 36.748 96.541 0 133.289-36.75 36.752-96.549 36.75-133.299 0-2.463-2.463-4.818-5.092-7.001-7.816-2.591-3.231-7.312-3.753-10.543-1.162-3.232 2.59-3.752 7.311-1.162 10.543 2.524 3.15 5.249 6.192 8.099 9.042 5.668 5.668 11.813 10.575 18.302 14.735l-4.997 42.198-25.689 21.453c-10.548 8.831-16.597 21.785-16.597 35.54 0 2.489.193 4.958.574 7.342l7.432 46.258c-1.633.999-3.159 2.196-4.542 3.583-4.609 4.596-7.148 10.717-7.148 17.236 0 13.442 10.931 24.377 24.367 24.377h30.639c2.204 30.527 27.729 54.696 58.808 54.696 31.082 0 56.608-24.173 58.809-54.704h147.703c2.201 30.531 27.727 54.704 58.809 54.704 11.979 0 23.514-3.573 33.355-10.333 3.414-2.345 4.281-7.014 1.937-10.428s-7.015-4.281-10.429-1.936c-7.331 5.035-15.929 7.697-24.863 7.697-24.251 0-43.98-19.729-43.98-43.98s19.729-43.98 43.98-43.98c24.25 0 43.979 19.729 43.979 43.98 0 6.589-1.419 12.922-4.219 18.825-1.775 3.742-.181 8.215 3.563 9.99 3.743 1.775 8.215.18 9.99-3.562 3.148-6.637 4.978-13.676 5.496-20.973h49.683c13.438 0 24.372-10.933 24.372-24.372 0-8.652-4.537-16.26-11.352-20.586zm-232.399-191.079c9.501 0 18.063 5.28 22.341 13.775l31.454 62.552h-111.629v-76.327zm-81.069 23.319c2.952-2.952 5.692-6.037 8.235-9.228v62.236h-70.283v-22.117c22.715-3.167 44.618-13.461 62.048-30.891zm-77.048 31.948v21.061h-23.097l2.716-22.927c6.662 1.242 13.416 1.869 20.172 1.869.069-.001.139-.003.209-.003zm-95.131 156.397c0-2.504.973-4.852 2.755-6.629 1.761-1.766 4.108-2.738 6.612-2.738h38.385c-3.31 5.715-5.687 12.031-6.925 18.745h-31.46c-5.165 0-9.367-4.207-9.367-9.378zm98.814 64.074c-24.251 0-43.98-19.729-43.98-43.98s19.729-43.98 43.98-43.98 43.98 19.729 43.98 43.98-19.729 43.98-43.98 43.98zm265.321-102.96c-28.858 0-52.926 20.84-57.986 48.256h-149.349c-5.06-27.417-29.127-48.256-57.986-48.256-14.795 0-28.324 5.488-38.689 14.52h-48.812l-7.242-45.085c-.256-1.599-.386-3.27-.386-4.967 0-9.304 4.092-18.066 11.219-24.033l27.973-23.358c1.47-1.228 2.415-2.972 2.641-4.875l4.647-39.251c3.257 1.458 6.572 2.75 9.93 3.873l-3.949 33.344c-.252 2.127.419 4.262 1.842 5.863 1.423 1.602 3.464 2.519 5.606 2.519h255.615c2.603 0 5.019-1.349 6.385-3.564 1.365-2.215 1.485-4.98.315-7.305l-36.922-73.425c-6.844-13.59-20.539-22.032-35.739-22.032h-56.251c1.288-3.392 2.404-6.835 3.343-10.316h52.908c19.141 0 36.368 10.62 44.96 27.717l42.782 85.065c1.291 2.568 3.936 4.153 6.815 4.129.631-.012 63.979-.644 115.939 25.284 9.48 4.74 15.273 14.741 14.759 25.461-.057 1.118-.177 2.239-.354 3.304l-7.075 41.649h-68.254c-10.365-9.03-23.892-14.517-38.685-14.517zm108.492 48.26h-50.507c-1.239-6.714-3.615-13.029-6.926-18.744h57.432c5.168 0 9.372 4.204 9.372 9.372s-4.203 9.372-9.371 9.372z" fill="#000000" style="fill: rgb(102, 51, 153);"></path><path d="m305.874 379.491h-116.819c-4.143 0-7.5 3.358-7.5 7.5s3.357 7.5 7.5 7.5h116.819c4.143 0 7.5-3.358 7.5-7.5s-3.357-7.5-7.5-7.5z" fill="#000000" style="fill: rgb(102, 51, 153);"></path><path d="m218.109 315.295h20.445c4.143 0 7.5-3.358 7.5-7.5s-3.357-7.5-7.5-7.5h-20.445c-4.143 0-7.5 3.358-7.5 7.5s3.358 7.5 7.5 7.5z" fill="#000000" style="fill: rgb(102, 51, 153);"></path><path d="m116.032 300.295h-20.445c-4.143 0-7.5 3.358-7.5 7.5s3.357 7.5 7.5 7.5h20.445c4.143 0 7.5-3.358 7.5-7.5s-3.357-7.5-7.5-7.5z" fill="#000000" style="fill: rgb(102, 51, 153);"></path><path d="m453.557 367.528c14.899 0 27.021-12.122 27.021-27.021 0-14.9-12.122-27.021-27.021-27.021s-27.021 12.122-27.021 27.021c-.001 14.899 12.121 27.021 27.021 27.021zm0-39.043c6.629 0 12.021 5.393 12.021 12.021s-5.393 12.021-12.021 12.021-12.021-5.393-12.021-12.021c-.001-6.628 5.392-12.021 12.021-12.021z" fill="#000000" style="fill: rgb(102, 51, 153);"></path><path d="m85.522 204.549c-.968 0-1.951-.188-2.899-.586-3.819-1.603-5.616-5.999-4.014-9.818l50.423-120.147c1.604-3.82 6.001-5.615 9.818-4.013 3.819 1.603 5.616 5.999 4.014 9.818l-50.423 120.146c-1.205 2.871-3.989 4.6-6.919 4.6z" fill="#000000" style="fill: rgb(102, 51, 153);"></path><path d="m75.872 130.58c-16.42 0-29.779-14.979-29.779-33.39s13.359-33.39 29.779-33.39 29.779 14.979 29.779 33.39-13.359 33.39-29.779 33.39zm0-51.78c-8.149 0-14.779 8.25-14.779 18.39s6.63 18.39 14.779 18.39 14.779-8.25 14.779-18.39-6.63-18.39-14.779-18.39z" fill="#000000" style="fill: rgb(102, 51, 153);"></path><path d="m143.971 212.727c-16.42 0-29.779-14.979-29.779-33.39s13.359-33.39 29.779-33.39c16.421 0 29.78 14.979 29.78 33.39s-13.359 33.39-29.78 33.39zm0-51.78c-8.149 0-14.779 8.25-14.779 18.39s6.63 18.39 14.779 18.39 14.78-8.25 14.78-18.39-6.631-18.39-14.78-18.39z" fill="#000000" style="fill: rgb(102, 51, 153);"></path></svg>