<!-- icon666.com - MILLIONS vector ICONS FREE --><svg id="Capa_1" enable-background="new 0 0 511.991 511.991" viewBox="0 0 511.991 511.991" xmlns="http://www.w3.org/2000/svg"><path d="m504.491 487.434h-30.73l.004-65.716c0-4.142-3.358-7.5-7.5-7.5s-7.5 3.358-7.5 7.5v27.486h-23.234v-145.42c0-4.142-3.358-7.5-7.5-7.5h-38.23c-4.142 0-7.5 3.358-7.5 7.5v145.42h-23.226v-176.151l99.69-.005v115.99c0 4.142 3.358 7.5 7.5 7.5s7.5-3.358 7.5-7.5v-115.985h30.726c4.142 0 7.5-3.358 7.5-7.5s-3.358-7.5-7.5-7.5l-107.19-.005v-30.725c0-4.142-3.358-7.5-7.5-7.5h-30.725v-11.615c0-14.271-2.864-28.086-8.514-41.064-1.653-3.798-6.073-5.537-9.87-3.883-3.798 1.653-5.536 6.072-3.883 9.87 4.822 11.077 7.267 22.878 7.267 35.076v11.615h-40.244l.07-.278c8.622-34.488-.954-70.514-24.078-96.144 14.391 4.022 27.59 11.672 38.447 22.529.647.647 1.295 1.312 1.915 1.986 2.804 3.048 7.549 3.247 10.597.442 3.048-2.804 3.247-7.549.442-10.597-.683-.743-1.45-1.539-2.346-2.436-17.694-17.694-40.681-28.162-65.383-29.928v-23.493h49.845c4.142 0 7.5-3.358 7.5-7.5v-38.23c0-4.142-3.358-7.5-7.5-7.5h-49.845v-11.616c0-4.142-3.358-7.5-7.5-7.5s-7.5 3.358-7.5 7.5v88.345c-53.35 3.855-95.58 48.49-95.58 102.806v11.615h-30.726c-4.142 0-7.5 3.358-7.5 7.5v30.725l-107.19.005c-4.142 0-7.5 3.358-7.5 7.5s3.358 7.5 7.5 7.5h30.726l.004 214.381h-30.73c-4.142 0-7.5 3.358-7.5 7.5s3.358 7.5 7.5 7.5h496.991c4.142 0 7.5-3.358 7.5-7.5s-3.358-7.5-7.5-7.5zm-240.995-443.761h42.345v23.23h-42.345zm133.805 267.61h23.23v23.23h-23.23zm0 38.23h23.23v99.69h-23.23zm-141.305-227.693c29.931 22.502 42.621 62.209 32.374 98.003h-64.748c-10.247-35.794 2.442-75.501 32.374-98.003zm-88.081 86.388c0-40.311 27.222-74.382 64.247-84.801-23.12 25.63-32.694 61.652-24.072 96.137l.07.279h-40.245zm-14.995 279.226h-99.69v-23.226h99.69zm-38.23-137.921v99.69h-23.23v-99.69zm-23.23-15v-23.23h23.23v23.23zm68.955 14.735c-4.142 0-7.5 3.358-7.5 7.5v92.456h-23.225v-145.42c0-4.142-3.358-7.5-7.5-7.5h-38.23c-4.142 0-7.5 3.358-7.5 7.5v145.42h-23.234v-176.156l99.69.005v51.005c0 4.142 3.358 7.5 7.5 7.5s7.5-3.358 7.5-7.5v-51.005h23.23v176.151h-23.23v-92.456c-.001-4.142-3.358-7.5-7.501-7.5zm183.656 138.186h-176.151v-23.226l176.15-.004v23.23zm-114.69-176.151v99.69h-23.235v-99.69zm-23.231-15v-23.23h23.23v23.23zm23.23 129.691v23.23h-23.23v-23.23zm15.001 23.23v-176.151h23.229v176.151zm61.46-137.921v99.69h-23.23v-99.69zm-23.23-15v-23.23h23.23v23.23zm23.23 129.691v23.23h-23.23v-23.23zm38.23 23.23h-23.23v-176.151h23.23zm-214.381-191.156v-23.225h252.61v23.225zm229.381 206.16h99.69v23.226h-99.69z" fill="#000000" style="fill: rgb(102, 51, 153);"></path></svg>