<!-- icon666.com - MILLIONS vector ICONS FREE --><svg viewBox="0 0 60 60" xmlns="http://www.w3.org/2000/svg"><g id="Page-1" fill="none" fill-rule="evenodd"><g id="078---New-Build" fill="rgb(0,0,0)" fill-rule="nonzero" transform="translate(0 -1)"><path id="Shape" d="m54 20.306v-11.306c0-1.1045695-.8954305-2-2-2h-5c-1.1045695 0-2 .8954305-2 2v3.84l-13.714-11.377c-.7463162-.61806673-1.8266838-.61806673-2.573 0l-27.984 23.217c-.41990831.3482464-.68067231.8518682-.72269959 1.3957729-.04202728.5439046.138274 1.0816074.49969959 1.4902271l2.494 2.814c.71969848.8209139 1.96340855.9164131 2.8.215l.2-.172v28.577c0 1.1045695.8954305 2 2 2h44c1.1045695 0 2-.8954305 2-2v-28.577l.207.172c.8349944.6984234 2.0747364.6029904 2.793-.215l2.49-2.814c.3620779-.4082509.5429016-.9460058.5010496-1.4900807-.0418519-.544075-.3027931-1.047848-.7230496-1.3959193zm-7-11.306h5v9.647l-5-4.147zm5 50h-44v-30.236l22-18.251 22 18.251zm3.505-29.946c-.0058327.0057171-.0151673.0057171-.021 0l-24.845-20.61c-.3704282-.30772435-.9075718-.30772435-1.278 0l-24.861 20.61-2.494-2.835 28.004-23.219 27.99 23.24z" fill="rgb(0,0,0)" style="fill: rgb(102, 51, 153);"></path><path id="Shape" d="m26 51h5c.5522847 0 1-.4477153 1-1s-.4477153-1-1-1h-4v-4h4c.5522847 0 1-.4477153 1-1s-.4477153-1-1-1h-4v-4h4c.5522847 0 1-.4477153 1-1s-.4477153-1-1-1h-5c-.5522847 0-1 .4477153-1 1v12c0 .5522847.4477153 1 1 1z" fill="rgb(0,0,0)" style="fill: rgb(102, 51, 153);"></path><path id="Shape" d="m14 38v12c0 .5522847.4477153 1 1 1s1-.4477153 1-1v-8.3l5.136 8.8c.1782705.3087753.5074582.4992774.864.5.0881055.0000201.17584-.0114089.261-.034.4363448-.117975.7392988-.5139881.739-.966v-12c0-.5522847-.4477153-1-1-1s-1 .4477153-1 1v8.3l-5.136-8.8c-.2271763-.389849-.6872829-.5792744-1.1230875-.4623741-.4358045.1169004-.7393417.5111659-.7409125.9623741z" fill="rgb(0,0,0)" style="fill: rgb(102, 51, 153);"></path><path id="Shape" d="m36.922 51c.4577855.0354676.8809007-.245372 1.026-.681l2.052-6.157 2.052 6.154c.1359555.4081936.5177607.6836733.948.684h.079c.4581084-.0360609.8326763-.3796899.908-.833l2-12c.0725828-.5356565-.2936435-1.0320325-.8268696-1.1207233-.5332261-.0886907-1.0404122.2624119-1.1451304.7927233l-1.338 8.028-1.728-5.18c-.1348836-.4103745-.5180268-.6877501-.95-.6877501s-.8151164.2773756-.95.6877501l-1.728 5.18-1.338-8.028c-.0489371-.3611529-.2904799-.6670837-.6304244-.7984763-.3399446-.1313926-.7244525-.0674379-1.0035621.1669211-.2791095.234359-.4086171.602006-.3380135.9595552l2 12c.0756035.4543263.4517385.7982565.911.833z" fill="rgb(0,0,0)" style="fill: rgb(102, 51, 153);"></path><path id="Shape" d="m10 38v12c.0033061 2.7600532 2.2399468 4.9966939 5 5h30c2.7600532-.0033061 4.9966939-2.2399468 5-5v-12c-.0033061-2.7600532-2.2399468-4.9966939-5-5h-30c-2.7600532.0033061-4.9966939 2.2399468-5 5zm38 0v12c0 1.6568542-1.3431458 3-3 3h-30c-1.6568542 0-3-1.3431458-3-3v-12c0-1.6568542 1.3431458-3 3-3h30c1.6568542 0 3 1.3431458 3 3z" fill="rgb(0,0,0)" style="fill: rgb(102, 51, 153);"></path></g></g></svg>