<!-- icon666.com - MILLIONS vector ICONS FREE --><svg id="Capa_1" enable-background="new 0 0 512 512" viewBox="0 0 512 512" xmlns="http://www.w3.org/2000/svg"><g id="XMLID_871_"><path id="XMLID_872_" d="m491.918 389.17c0-47.095 0-73.058 0-95.355 0-12.552-5.998-24.55-16.049-32.099l-25.513-19.134-1.791-5.821h23.313c4.767 0 8.871-3.365 9.806-8.039l10.04-50.204c1.236-6.173-3.488-11.961-9.806-11.961h-54.952l-9.271-30.135c-2.846-9.237-8.872-16.985-16.821-22.038 9.216-27.738 5.934-58.346-9.87-84.029-8.895-14.455-27.299-20.155-42.807-13.264l-69.218 30.764h-45.958l-69.218-30.764c-15.512-6.892-33.912-1.19-42.807 13.263-15.805 25.683-19.086 56.292-9.87 84.03-7.949 5.053-13.975 12.802-16.822 22.042l-9.27 30.13h-54.952c-6.321 0-11.041 5.791-9.806 11.961l10.04 50.204c.935 4.674 5.039 8.039 9.806 8.039h23.313l-1.791 5.821-25.518 19.139c-10.046 7.545-16.044 19.543-16.044 32.095v95.338c-11.565 4.067-20.082 15.137-20.082 28.383 0 16.587 13.495 30.081 30.082 30.081h30.163v40.204c0 5.523 4.478 10 10 10h70.285c5.522 0 10-4.477 10-10v-40.204h210.939v40.204c0 5.523 4.478 10 10 10h70.285c5.522 0 10-4.477 10-10v-40.204h30.163c16.619 0 30.082-13.457 30.082-30.081.001-13.082-8.396-24.234-20.081-28.366zm-20-50.131h-65.597l12.082-30.204h53.515zm-.641-50.204h-59.644c-4.089 0-7.766 2.489-9.285 6.286l-20.082 50.204c-2.623 6.557 2.212 13.714 9.285 13.714h80.367v28.415h-180.816v-28.415h60.286c5.522 0 10-4.478 10-10v-50.204c0-5.522-4.478-10-10-10h-60.286v-30.204h147.32l25.443 19.081c3.686 2.769 6.28 6.733 7.412 11.123zm-137.27-146.319 20.141 23.145-12.562 1.792c-4.365.624-7.808 4.033-8.473 8.393l-1.603 10.509-40.408-43.958v-18.95zm-42.905 166.319h50.286v30.204h-50.286zm178.618-122.279-6.04 30.204h-21.268l-9.292-30.204zm-71.139-44.249c5.465 17.764 26.193 85.139 29.635 96.324h-137.114v-66.681l39.79 43.285c5.643 6.139 15.98 3.055 17.248-5.26l3.625-23.771 23.407-3.34c7.834-1.119 11.325-10.494 6.131-16.464l-13.248-15.224c11.149-2.029 18.845-8.423 24.457-18.163 2.812 2.431 4.94 5.629 6.069 9.294zm-42.261-106.939c6.394-2.844 13.983-.491 17.65 5.469 16.018 26.029 15.958 58.308 0 84.24-3.668 5.961-11.258 8.311-17.65 5.469l-65.219-28.985v-37.207zm-85.218 62.691h-30.203v-30.204h30.203zm-89.703 42.943 39.5-17.555v20.834l-38.409 41.154-.907-9.372c-.45-4.657-4.069-8.379-8.712-8.96l-13.456-1.684zm39.499 198.037h-50.286v-30.204h50.286zm-82.869-298.202c3.662-5.951 11.247-8.315 17.65-5.469l65.219 28.986v37.207l-65.219 28.985c-6.393 2.842-13.982.492-17.65-5.469-15.955-25.925-16.02-58.207 0-84.24zm-24.611 101.474c1.13-3.667 3.258-6.867 6.071-9.3 6.276 10.893 14.864 16.784 25.666 18.355l-13.421 14.905c-5.384 5.981-1.841 15.609 6.19 16.614l24.523 3.068 2.27 23.477c.378 3.914 3.016 7.242 6.738 8.506 3.747 1.271 7.859.212 10.525-2.646l38.918-41.698v65.038h-137.114c1.75-5.686 28.24-91.788 29.634-96.319zm-65.098 74.449-6.04-30.204h36.6l-9.293 30.204zm-.189 60.956 25.447-19.085h147.32v30.204h-60.286c-5.523 0-10 4.478-10 10v50.204c0 5.522 4.477 10 10 10h60.286v28.415h-180.816v-28.415h80.367c7.063 0 11.912-7.147 9.285-13.714l-20.082-50.204c-1.52-3.797-5.196-6.286-9.285-6.286h-59.644c1.132-4.39 3.725-8.353 7.408-11.119zm-8.049 31.119h53.515l12.082 30.204h-65.597zm-20.082 108.701c0-5.566 4.514-10.082 10.082-10.082h190.816v20.163c-5.141 0-168.185 0-190.816 0-5.56 0-10.082-4.522-10.082-10.081zm110.53 60.285h-50.285v-30.204h50.285zm110.368-50.204v-309.558h30.203v309.558zm190.857 50.204h-50.285v-30.204h50.285zm50.163-50.204c-24.945 0-168.575 0-190.816 0v-20.163h190.816c5.56 0 10.082 4.522 10.082 10.082 0 5.565-4.515 10.081-10.082 10.081z" fill="#000000" style="fill: rgb(102, 51, 153);"></path></g></svg>