<!-- icon666.com - MILLIONS vector ICONS FREE --><svg version="1.1" id="Layer_1" xmlns="http://www.w3.org/2000/svg" xmlns:xlink="http://www.w3.org/1999/xlink" x="0px" y="0px" viewBox="0 0 511.93 511.93" style="enable-background:new 0 0 511.93 511.93;" xml:space="preserve"><g><g><path d="M501.276,352.26h-12.437L469.092,243.69c-0.906-5.069-5.343-8.756-10.498-8.756h-24.81 c-1.999-1.289-4.202-2.39-6.577-3.289c-5.422-2.039-11.17-2.75-16.732-3c-4.874-16.021-18.591-28.48-35.729-32.199 c-4.594-16.506-18.514-29.41-36.027-33.214c-4.593-16.498-18.513-29.402-36.025-33.207c-5.5-19.747-24.356-34.347-46.729-34.347 c-22.364,0-41.229,14.6-46.728,34.347c-17.505,3.804-31.433,16.709-36.026,33.207c-17.505,3.804-31.433,16.708-36.026,33.214 c-17.146,3.718-30.855,16.177-35.729,32.199c-5.562,0.25-11.303,0.96-16.732,3c-2.375,0.898-4.57,2-6.585,3.289h-24.81 c-5.156,0-9.577,3.687-10.499,8.756L23.099,352.26H10.663C4.773,352.26,0,357.026,0,362.917v42.666 c0,5.889,4.773,10.67,10.663,10.67h490.613c5.873,0,10.654-4.781,10.654-10.67v-42.666 C511.93,357.026,507.149,352.26,501.276,352.26z M147.886,216.632c4.171,0,8.116,0.875,11.639,2.421 c-1.687-3.242-2.632-6.882-2.632-10.725c0-10.17,6.624-18.911,16.107-22.778c2.055,2.218,20.419,21.278,44.041,21.278 c1.531,0,3.078-0.078,4.648-0.25c5.858-0.633,10.092-5.89,9.459-11.749c-0.633-5.851-5.89-10.092-11.749-9.459 c-10.709,1.156-20.927-5.726-26.473-10.358c0.063-13.701,12.131-24.793,27.012-24.793c4.171,0,8.116,0.867,11.639,2.421 c-1.688-3.25-2.632-6.882-2.632-10.725c0-13.756,12.1-24.903,27.02-24.903s27.027,11.147,27.027,24.903 c0,0.469-0.031,0.93-0.063,1.391c-4.905,4.39-13.451,9.186-26.91,8.131c-5.874-0.453-10.999,3.937-11.459,9.804 c-0.461,5.874,3.929,11.006,9.803,11.467c1.914,0.148,3.758,0.219,5.555,0.219c23.824,0,37.322-12.521,43.447-20.396 c9.232,3.96,15.653,12.584,15.653,22.591c0,3.843-0.952,7.476-2.64,10.725c3.515-1.555,7.467-2.422,11.639-2.422 c14.92,0,27.027,11.147,27.027,24.903c0,3.843-0.953,7.483-2.641,10.725c3.516-1.546,7.469-2.421,11.64-2.421 c12.436,0,22.903,7.757,26.059,18.302H121.835C124.975,224.388,135.45,216.632,147.886,216.632z M62.226,256.266h193.739h193.739 l17.45,95.994H255.965H44.775L62.226,256.266z M490.589,394.911h-31.995c0-5.889-4.766-10.654-10.655-10.654 c-5.889,0-10.655,4.766-10.655,10.654h-21.34c0-5.889-4.781-10.654-10.655-10.654c-5.905,0-10.687,4.766-10.687,10.654h-21.309 c0-5.889-4.781-10.654-10.687-10.654c-5.874,0-10.655,4.766-10.655,10.654h-21.34c0-5.889-4.766-10.654-10.655-10.654 c-5.889,0-10.655,4.766-10.655,10.654h-21.34c0-5.889-4.781-10.654-10.655-10.654c-5.897,0-10.679,4.766-10.679,10.654h-21.325 c0-5.889-4.781-10.654-10.67-10.654c-5.889,0-10.663,4.766-10.663,10.654h-21.333c0-5.889-4.773-10.654-10.663-10.654 c-5.89,0-10.663,4.766-10.663,10.654h-21.333c0-5.889-4.773-10.654-10.663-10.654c-5.89,0-10.67,4.766-10.67,10.654h-21.325 c0-5.889-4.781-10.654-10.67-10.654c-5.889,0-10.663,4.766-10.663,10.654H74.654c0-5.889-4.773-10.654-10.663-10.654 s-10.663,4.766-10.663,10.654H21.333v-21.324h10.663h447.938h10.655V394.911z" fill="#000000" style="fill: rgb(102, 51, 153);"></path></g></g><g><g><path d="M255.965,288.271c-17.646,0-31.996,14.342-31.996,31.996c0,17.621,14.35,31.994,31.996,31.994 c17.654,0,31.996-14.373,31.996-31.994C287.961,302.612,273.619,288.271,255.965,288.271z M255.965,330.92 c-5.882,0-10.663-4.781-10.663-10.654c0-5.891,4.781-10.672,10.663-10.672c5.882,0,10.662,4.781,10.662,10.672 C266.627,326.14,261.847,330.92,255.965,330.92z" fill="#000000" style="fill: rgb(102, 51, 153);"></path></g></g><g><g><path d="M255.965,256.267c-5.89,0-10.663,4.773-10.663,10.662c0,5.891,4.773,10.672,10.663,10.672s10.662-4.781,10.662-10.672 C266.627,261.039,261.855,256.267,255.965,256.267z" fill="#000000" style="fill: rgb(102, 51, 153);"></path></g></g><g><g><path d="M233.335,271.89c-4.163-4.172-10.92-4.172-15.083,0c-4.164,4.164-4.164,10.912,0,15.084c4.163,4.172,10.92,4.172,15.083,0 C237.499,282.802,237.499,276.053,233.335,271.89z" fill="#000000" style="fill: rgb(102, 51, 153);"></path></g></g><g><g><path d="M293.678,271.89c-4.154-4.172-10.92-4.164-15.091,0c-4.155,4.164-4.155,10.912,0,15.084 c4.171,4.172,10.937,4.172,15.091,0C297.834,282.802,297.834,276.053,293.678,271.89z" fill="#000000" style="fill: rgb(102, 51, 153);"></path></g></g></svg>