<!-- icon666.com - MILLIONS vector ICONS FREE --><svg viewBox="0 0 512 512.00001" xmlns="http://www.w3.org/2000/svg"><path d="m86.816406 442.246094c18.003906-10.242188 30.179688-29.589844 30.179688-51.742188 0-32.808594-26.691406-59.5-59.496094-59.5h-37.5c-11.046875 0-20 8.953125-20 20v140.996094c0 11.042969 8.953125 19.996094 20 19.996094s20-8.953125 20-19.996094v-42h4.285156c.570313 1.523438 1.3125 3.003906 2.28125 4.402344l34 48.996094c3.882813 5.601562 10.113282 8.601562 16.449219 8.601562 3.933594 0 7.90625-1.15625 11.382813-3.570312 9.074218-6.296876 11.324218-18.757813 5.027343-27.832032zm-46.816406-71.242188h17.5c10.75 0 19.496094 8.746094 19.496094 19.5 0 10.75-8.746094 19.496094-19.496094 19.496094h-17.5zm160.992188 78.996094c15.96875 0 30.957031-6.007812 42.207031-16.921875 11.472656-11.125 17.792969-26.113281 17.792969-42.199219 0-33.085937-26.914063-60-60-60h-2c-33.082032 0-59.996094 26.914063-59.996094 60v60.996094c0 33.152344 26.914062 60.121094 59.996094 60.121094 36.003906 0 51.617187-11.792969 55.542968-15.40625 8.128906-7.480469 8.652344-20.132813 1.171875-28.261719-7.238281-7.859375-19.3125-8.605469-27.449219-1.875-1.035156.660156-9.378906 5.546875-29.265624 5.546875-11.027344 0-19.996094-9.027344-19.996094-20.125v-1.875zm-21.996094-59.121094c0-11.027344 8.96875-20 19.996094-20h2c11.027343 0 20 8.972656 20 20 0 10.722656-8.785157 19.121094-20 19.121094h-21.996094zm216.988281-3v104.121094c0 11.042969-8.953125 19.996094-19.996094 19.996094-11.046875 0-20-8.953125-20-19.996094v-104.121094c0-9.375-7.625-17-17-17s-17 7.625-17 17v104.121094c0 11.042969-8.953125 19.996094-20 19.996094-11.042969 0-19.996093-8.953125-19.996093-19.996094v-140.121094c0-11.046875 8.953124-20 19.996093-20 4.789063 0 9.175781 1.6875 12.621094 4.492188 7.394531-3.515625 15.660156-5.492188 24.378906-5.492188 31.429688 0 56.996094 25.570313 56.996094 57zm115.996094-36.875c0 11.046875-8.953125 20-19.996094 20h-13v120.996094c0 11.042969-8.953125 19.996094-20 19.996094s-20-8.953125-20-19.996094v-120.996094h-13c-11.042969 0-20-8.953125-20-20s8.957031-20 20-20h66c11.042969 0 19.996094 8.953125 19.996094 20zm-89.996094-153.078125-152.101563-153.105469c-7.464843-6.394531-18.457031-6.417968-25.945312-.054687l-153.96875 153.667969c.003906.191406.027344.382812.027344.578125v71.996093c0 11.046876-8.953125 20-20 20-11.042969 0-20-8.953124-20-20v-32.683593l-15.871094 15.839843c-7.8125 7.800782-20.476562 7.792969-28.28125-.027343-7.804688-7.816407-7.789062-20.480469.027344-28.28125l210.28125-209.871094c.269531-.269531.546875-.527344.828125-.78125 22.84375-20.335937 57.226562-20.261719 79.980469.167969.28125.253906.558593.515625.828124.785156l208.382813 209.757812c7.78125 7.835938 7.742187 20.496094-.09375 28.28125-3.902344 3.875-9 5.8125-14.097656 5.8125-5.140625 0-10.277344-1.96875-14.1875-5.902343l-15.808594-15.917969v32.820312c0 11.046876-8.957031 20-20 20-11.046875 0-20-8.953124-20-20zm0 0" fill="#000000" style="fill: rgb(102, 51, 153);"></path></svg>