<!-- icon666.com - MILLIONS vector ICONS FREE --><svg version="1.1" id="Capa_1" xmlns="http://www.w3.org/2000/svg" xmlns:xlink="http://www.w3.org/1999/xlink" x="0px" y="0px" viewBox="0 0 512 512" style="enable-background:new 0 0 512 512;" xml:space="preserve"><g><g><path d="M497,362H395.706c-6.595,0-13.169,0.156-19.724,0.457l-75.43-131.905L443.5,148.021c3.445-1.989,5.959-5.266,6.989-9.108 c1.03-3.842,0.491-7.937-1.499-11.382C397.615,38.543,286.212,5.365,195.161,49.512C176.198,18.998,142.723,0,106,0 C47.551,0,0,47.103,0,105c0,51.821,38.06,93.849,85.807,103.064c-3.544,39.621,5.133,79.304,25.434,114.466 c4.157,7.201,13.346,9.615,20.49,5.49c9.778-5.646,142.84-82.469,142.84-82.469l68.451,119.701 c-56.66,7.047-110.748,25.507-159.259,53.403C141.868,382.528,86.78,362,30.836,362H15c-8.284,0-15,6.716-15,15v120 c0,8.284,6.716,15,15,15c9.403,0,474.659,0,482,0c8.284,0,15-6.716,15-15V377C512,368.716,505.284,362,497,362z M414.931,129.874 l-51.643,29.816c-24.256-38.425-59.468-78.14-99.909-98.892C321.879,54.865,380.3,80.628,414.931,129.874z M91.76,174.561 c-0.345,1.289-0.668,2.58-0.987,3.871C56.312,171.325,30,140.666,30,105c0-41.355,34.093-75,76-75 c25.934,0,49.596,13.266,63.222,34.628C131.126,90.875,103.865,129.382,91.76,174.561z M130.3,294.206 c-16.228-34.985-19.665-74.176-9.562-111.881c5.273-19.678,13.948-37.857,25.516-53.901 c-2.247,45.384,14.529,95.729,35.688,135.966L130.3,294.206z M207.944,249.378c-18.566-35.57-29.704-71.917-31.609-103.654 c-1.891-31.502,5.861-54.674,21.267-63.581c0.005-0.002,0.009-0.005,0.014-0.008c0.006-0.003,0.011-0.006,0.017-0.009 c15.417-8.887,39.359-4.013,65.692,13.375c26.533,17.519,52.44,45.337,73.961,79.202L207.944,249.378z M30,482v-90h0.836 c45.657,0,90.637,15.651,126.125,43.44c-20.254,13.769-39.311,29.314-57.066,46.56H30z M482,482c-9.869,0-311.139,0-337.25,0 c61.033-50.451,135.464-81.146,214.518-88.335l27.825,48.658c4.133,7.228,13.311,9.668,20.468,5.575 c7.191-4.113,9.688-13.276,5.575-20.468l-20.243-35.399c0.938-0.007,1.873-0.03,2.812-0.03H482V482z" fill="#000000" style="fill: rgb(102, 51, 153);"></path></g></g></svg>