<!-- icon666.com - MILLIONS vector ICONS FREE --><svg id="Layer_5" enable-background="new 0 0 64 64" viewBox="0 0 64 64" xmlns="http://www.w3.org/2000/svg"><path d="m20.109 38.408c.565-1.01.891-2.171.891-3.408v-.338c0-1.269-.345-2.514-.998-3.602l-6.002-10.003-6.002 10.004c-.653 1.087-.998 2.333-.998 3.601v.338c0 1.237.326 2.398.891 3.408-3.119.444-6.891 1.427-6.891 3.592 0 .068.024.128.032.194l-.012.002.072.359c.001.004.001.008.002.012l3.282 16.413c.466 2.33 2.528 4.02 4.903 4.02h9.441c2.375 0 4.437-1.69 4.903-4.02l3.283-16.414c.001-.004.001-.008.002-.012l.072-.359-.012-.002c.008-.065.032-.125.032-.193 0-2.165-3.772-3.148-6.891-3.592zm3.407 10.913c-1.089-.838-2.765-1.321-4.915-1.321-3.391 0-5.38 1.658-7.266 3.313-2.179-1.212-4.249-2.313-6.335-2.313-.19 0-.383.012-.575.024l-.9-4.501c2.801 1.116 7.338 1.477 10.475 1.477s7.674-.361 10.475-1.476zm-5.221 4.679c-1.644 0-3.375-.752-5.092-1.66 1.533-1.31 3.025-2.34 5.398-2.34 1.982 0 4.296.523 4.296 2 0 1.313-2.314 2-4.602 2zm-9.295-19.338c0-.906.247-1.796.712-2.572l4.288-7.147 4.288 7.146c.465.777.712 1.667.712 2.573v.338c0 2.757-2.243 5-5 5s-5-2.243-5-5zm.378 5.581c1.234 1.09 2.85 1.757 4.622 1.757s3.388-.667 4.622-1.757c4.085.44 5.993 1.333 6.344 1.759-.568.755-4.507 1.998-10.966 1.998s-10.398-1.243-10.967-1.998c.351-.426 2.26-1.319 6.345-1.759zm9.343 20.757h-9.442c-1.425 0-2.662-1.015-2.942-2.412l-1.515-7.573c.059-.001.12-.015.178-.015 1.667 0 3.614 1.086 5.676 2.235 2.437 1.36 4.957 2.765 7.619 2.765 1.591 0 2.954-.251 4.025-.7l-.658 3.288c-.279 1.397-1.516 2.412-2.941 2.412z" fill="#000000" style="fill: rgb(102, 51, 153);"></path><path d="m58.465 18.828-2.465-1.408v-11.42c0-2.757-2.243-5-5-5h-8c-2.757 0-5 2.243-5 5v1h-4v2h-15.126c-2.083 0-4.043.918-5.427 2.583l-1.752 2.497c-1.058 1.271-.885 3.167.388 4.228.538.446 1.218.692 1.917.692.894 0 1.733-.394 2.354-1.144l1.752-2.497c.19-.228.47-.359.768-.359h15.126v2h4v.42l-2.465 1.409c-2.798 1.598-4.535 4.592-4.535 7.814v3.357 2c0 1.641.806 3.088 2.031 4-1.225.912-2.031 2.359-2.031 4v2c0 1.641.806 3.088 2.031 4-1.225.912-2.031 2.359-2.031 4v2c0 1.627.793 3.061 2 3.974v2.026c0 2.757 2.243 5 5 5h18c2.757 0 5-2.243 5-5v-2.026c1.207-.914 2-2.348 2-3.974v-2c0-1.641-.806-3.088-2.031-4 1.225-.912 2.031-2.359 2.031-4v-2c0-1.641-.806-3.088-2.031-4 1.225-.912 2.031-2.359 2.031-4v-2-3.357c0-3.222-1.737-6.216-4.535-7.815zm-4.465-11.828v10h-14v-10zm-11-4h8c1.302 0 2.402.839 2.816 2h-13.632c.414-1.161 1.514-2 2.816-2zm-24.126 10c-.894 0-1.734.394-2.354 1.145l-1.751 2.496c-.339.406-1.001.467-1.407.129-.424-.354-.482-.986-.08-1.475l1.751-2.496c.953-1.144 2.353-1.799 3.841-1.799h15.126v2zm17.126 2v-6h2v6zm.527 5.564 2.739-1.564h15.469l2.739 1.564c1.984 1.134 3.27 3.174 3.483 5.425-.831-.614-1.847-.989-2.957-.989h-22c-1.11 0-2.126.375-2.956.989.213-2.251 1.499-4.291 3.483-5.425zm22.473 37.436c0 1.654-1.346 3-3 3h-18c-1.654 0-3-1.346-3-3v-1.101c.323.066.658.101 1 .101h22c.342 0 .677-.035 1-.101zm2-8v2c0 1.654-1.346 3-3 3h-22c-1.654 0-3-1.346-3-3v-2c0-1.654 1.346-3 3-3h22c1.654 0 3 1.346 3 3zm0-10v2c0 1.654-1.346 3-3 3h-22c-1.654 0-3-1.346-3-3v-2c0-1.654 1.346-3 3-3h22c1.654 0 3 1.346 3 3zm-3-5h-22c-1.654 0-3-1.346-3-3v-2c0-1.654 1.346-3 3-3h22c1.654 0 3 1.346 3 3v2c0 1.654-1.346 3-3 3z" fill="#000000" style="fill: rgb(102, 51, 153);"></path><path d="m39 49h2v2h-2z" fill="#000000" style="fill: rgb(102, 51, 153);"></path><path d="m35 49h2v2h-2z" fill="#000000" style="fill: rgb(102, 51, 153);"></path><path d="m43 49h2v2h-2z" fill="#000000" style="fill: rgb(102, 51, 153);"></path><path d="m57 39h2v2h-2z" fill="#000000" style="fill: rgb(102, 51, 153);"></path><path d="m49 39h2v2h-2z" fill="#000000" style="fill: rgb(102, 51, 153);"></path><path d="m53 39h2v2h-2z" fill="#000000" style="fill: rgb(102, 51, 153);"></path><path d="m43 29h2v2h-2z" fill="#000000" style="fill: rgb(102, 51, 153);"></path><path d="m35 29h2v2h-2z" fill="#000000" style="fill: rgb(102, 51, 153);"></path><path d="m39 29h2v2h-2z" fill="#000000" style="fill: rgb(102, 51, 153);"></path></svg>