<!-- icon666.com - MILLIONS vector ICONS FREE --><svg viewBox="-20 -21 661.33331 661" xmlns="http://www.w3.org/2000/svg"><path d="m570 270.050781c5.523438 0 10-4.476562 10-10v-30h30c5.523438 0 10-4.476562 10-10v-110c0-5.519531-4.476562-10-10-10h-87.738281l-207.960938-98.996093c-2.71875-1.296876-5.882812-1.296876-8.601562 0l-207.960938 98.996093h-87.738281c-5.523438 0-10 4.480469-10 10v110c0 5.523438 4.476562 10 10 10h30v30c0 5.523438 4.476562 10 10 10h10v210h-10c-5.523438 0-10 4.480469-10 10v30h-10c-5.523438 0-10 4.480469-10 10v30h-10c-5.523438 0-10 4.480469-10 10v40c0 5.523438 4.476562 10 10 10h600c5.523438 0 10-4.476562 10-10v-40c0-5.519531-4.476562-10-10-10h-10v-30c0-5.519531-4.476562-10-10-10h-10v-30c0-5.519531-4.476562-10-10-10h-10v-210zm-10-20h-100v-20h100zm-110 230c-5.523438 0-10 4.480469-10 10v30h-60v-30c0-5.519531-4.476562-10-10-10h-10v-210h10c5.523438 0 10-4.476562 10-10v-30h60v30c0 5.523438 4.476562 10 10 10h10v210zm-190 40v-20h100v20zm-80 0v-30c0-5.519531-4.476562-10-10-10h-10v-210h10c5.523438 0 10-4.476562 10-10v-30h60v30c0 5.523438 4.476562 10 10 10h10v210h-10c-5.523438 0-10 4.480469-10 10v30zm-100-250h60v210h-60zm280-40v20h-100v-20zm-80 40h60v210h-60zm200 0h60v210h-60zm-460-150h80c1.488281-.007812 2.960938-.351562 4.300781-1l205.699219-97.929687 205.699219 98.003906c1.347656.625 2.816406.941406 4.300781.925781h80v90h-580zm140 110v20h-100v-20zm-100 270h100v20h-100zm540 100h-580v-20h580zm-560-40v-20h540v20zm420-40v-20h100v20zm0 0" fill="#000000" style="fill: rgb(102, 51, 153);"></path><path d="m310 200.050781c44.183594 0 80-35.8125 80-80 0-44.179687-35.816406-80-80-80s-80 35.820313-80 80c.046875 44.167969 35.839844 79.953125 80 80zm0-140c33.132812 0 60 26.867188 60 60 0 33.140625-26.867188 60-60 60s-60-26.859375-60-60c.035156-33.117187 26.875-59.964843 60-60zm0 0" fill="#000000" style="fill: rgb(102, 51, 153);"></path><path d="m300 70.050781v1.882813c-11.203125 4.054687-18.679688 14.667968-18.75 26.582031 0 17.335937 13.796875 24.695313 23.882812 30.078125 10.382813 5.539062 13.617188 8.050781 13.617188 13-.085938 4.746094-4 8.53125-8.75 8.457031-4.867188.390625-9.222656-3.027343-10-7.84375 0-5.527343-4.476562-10-10-10s-10 4.472657-10 10c.304688 12.121094 8.375 22.675781 20 26.136719v1.707031c0 5.523438 4.476562 10 10 10s10-4.476562 10-10v-1.878906c11.203125-4.058594 18.679688-14.667969 18.75-26.578125 0-17.742188-14-25.199219-24.199219-30.652344-10.199219-5.449218-13.300781-7.816406-13.300781-12.425781.085938-4.753906 4-8.535156 8.75-8.464844 4.867188-.390625 9.222656 3.027344 10 7.851563 0 5.523437 4.476562 10 10 10s10-4.476563 10-10c-.304688-12.121094-8.375-22.679688-20-26.140625v-1.710938c0-5.519531-4.476562-10-10-10s-10 4.480469-10 10zm0 0" fill="#000000" style="fill: rgb(102, 51, 153);"></path></svg>