<!-- icon666.com - MILLIONS vector ICONS FREE --><svg version="1.1" id="Capa_1" xmlns="http://www.w3.org/2000/svg" xmlns:xlink="http://www.w3.org/1999/xlink" x="0px" y="0px" viewBox="0 0 511.999 511.999" style="enable-background:new 0 0 511.999 511.999;" xml:space="preserve"><g><g><path d="M438.918,183.28H71.399c-4.143,0-7.5,3.358-7.5,7.5v218.523c0,4.142,3.357,7.5,7.5,7.5h367.519c4.143,0,7.5-3.358,7.5-7.5 V190.78C446.418,186.638,443.061,183.28,438.918,183.28z M431.417,401.803H78.899V198.281h352.518V401.803z" fill="#000000" style="fill: rgb(102, 51, 153);"></path></g></g><g><g><path d="M302.17,434.018c-3.823,1.53-5.636,6.045-4.061,9.79c1.876,4.43,7.167,5.959,11.091,3.37 C316.633,442.284,310.525,430.493,302.17,434.018z" fill="#000000" style="fill: rgb(102, 51, 153);"></path></g></g><g><g><path d="M336.95,433.588c-2.509-0.517-5.069,0.347-6.77,2.05c-4.748,4.748-1.3,12.801,5.3,12.801 C344.504,448.438,345.75,435.242,336.95,433.588z" fill="#000000" style="fill: rgb(102, 51, 153);"></path></g></g><g><g><path d="M271.57,433.44h-94.603c-4.143,0-7.5,3.358-7.5,7.5s3.357,7.5,7.5,7.5h94.603c4.143,0,7.5-3.358,7.5-7.5 S275.713,433.44,271.57,433.44z" fill="#000000" style="fill: rgb(102, 51, 153);"></path></g></g><g><g><path d="M292.716,293.913l-50.696-28.487c-4.994-2.804-11.175,0.811-11.175,6.539v56.974c0,5.727,6.181,9.342,11.175,6.538 l50.696-28.487C297.814,304.126,297.807,296.774,292.716,293.913z M245.847,316.12v-31.338l27.885,15.67L245.847,316.12z" fill="#000000" style="fill: rgb(102, 51, 153);"></path></g></g><g><g><path d="M256.215,216.488c-46.297,0-83.963,37.666-83.963,83.963s37.666,83.962,83.963,83.962 c46.296,0,83.961-37.665,83.961-83.962S302.512,216.488,256.215,216.488z M256.215,369.413c-38.026,0-68.962-30.936-68.962-68.961 s30.936-68.963,68.962-68.963c38.025,0,68.961,30.937,68.961,68.963C325.176,338.477,294.24,369.413,256.215,369.413z" fill="#000000" style="fill: rgb(102, 51, 153);"></path></g></g><g><g><path d="M475.007,227.753c-4.143,0-7.5,3.358-7.5,7.5v222.494c0,3.782-3.079,6.859-6.863,6.859c-6.256,0-321.442,0-332.261,0 c-4.143,0-7.5,3.358-7.5,7.5s3.357,7.5,7.5,7.5h10.354c-6.164,15.565,5.414,32.391,22.037,32.391h190.451 c16.601,0,28.204-16.81,22.035-32.391h87.384c12.057,0,21.864-9.807,21.864-21.86V235.254 C482.508,231.111,479.15,227.753,475.007,227.753z M351.224,496.999H160.773c-4.795,0-8.695-3.9-8.695-8.695 c0-4.794,3.9-8.694,8.695-8.694h190.451c4.794,0,8.694,3.9,8.694,8.694S356.018,496.999,351.224,496.999z" fill="#000000" style="fill: rgb(102, 51, 153);"></path></g></g><g><g><path d="M460.644,146.27H311.712l75.218-109.12c7.434-10.783,4.724-25.525-6.062-32.959c-10.78-7.429-25.523-4.724-32.956,6.063 L256,143.594l-91.912-133.34c0,0,0-0.001-0.001-0.001C156.672-0.5,141.889-3.22,131.13,4.193 c-10.756,7.414-13.476,22.198-6.061,32.958l75.217,109.121H51.353c-12.056,0-21.862,9.807-21.862,21.862v289.616 c0,12.054,9.807,21.86,21.862,21.86H93.38c4.143,0,7.5-3.358,7.5-7.5s-3.357-7.5-7.5-7.5H51.353c-3.783,0-6.861-3.077-6.861-6.859 V168.133c0-3.783,3.078-6.861,6.861-6.861c9.809,0,398.729,0,409.291,0c3.784,0,6.863,3.078,6.863,6.861v32.12 c0,4.142,3.357,7.5,7.5,7.5c4.143,0,7.5-3.358,7.5-7.5v-32.12C482.508,156.078,472.699,146.27,460.644,146.27z M218.504,146.271 L218.504,146.271L137.42,28.638c-2.721-3.948-1.724-9.374,2.223-12.094c3.947-2.722,9.373-1.721,12.096,2.224l87.888,127.502 H218.504z M272.374,146.27C366.88,9.167,360.796,16.08,365.848,15.15c2.28-0.421,4.595,0.075,6.507,1.393h0.001 c3.955,2.726,4.952,8.135,2.224,12.094L293.493,146.27H272.374z" fill="#000000" style="fill: rgb(102, 51, 153);"></path></g></g></svg>