<!-- icon666.com - MILLIONS vector ICONS FREE --><svg xmlns="http://www.w3.org/2000/svg" viewBox="0 0 64 64"><g id="outline"><path d="M18,49a4,4,0,1,0,4,4A4,4,0,0,0,18,49Zm0,6a2,2,0,1,1,2-2A2,2,0,0,1,18,55Z" fill="#000000" style="fill: rgb(102, 51, 153);"></path><path d="M48,49a4,4,0,1,0,4,4A4,4,0,0,0,48,49Zm0,6a2,2,0,1,1,2-2A2,2,0,0,1,48,55Z" fill="#000000" style="fill: rgb(102, 51, 153);"></path><path d="M61,50H60V39a1,1,0,0,0-1-1H57.58l-3.333-5.833,4.46-4.46a1,1,0,0,0,0-1.414l-3-3a1,1,0,0,0-1.414,0L42.666,34.92l-8.025-6.689A1.006,1.006,0,0,0,34,28H12a1,1,0,0,0-.844.463l-7,11A1.012,1.012,0,0,0,4,40V50H3a1,1,0,0,0-1,1v4a1,1,0,0,0,1,1h7.589a7.992,7.992,0,0,0,14.822,0H40.589a7.992,7.992,0,0,0,14.822,0H61a1,1,0,0,0,1-1V51A1,1,0,0,0,61,50Zm-3-8H54V40h4Zm-2.723-4H48.414l4.367-4.367ZM55,25.414,56.586,27,45.939,37.646,44.21,36.2ZM12.549,30H33.638l11.721,9.769A1.017,1.017,0,0,0,46,40h6v3a1,1,0,0,0,1,1h5v6H55.411a7.992,7.992,0,0,0-14.822,0H25.411a7.992,7.992,0,0,0-14.822,0H10V45a3,3,0,0,0-3-3H6V40.291ZM6,44H7a1,1,0,0,1,1,1v1H6Zm0,4H8v2H6ZM4,54V52h6.069a7.281,7.281,0,0,0,0,2Zm14,5a6,6,0,1,1,6-6A6.006,6.006,0,0,1,18,59Zm7.931-5a7.281,7.281,0,0,0,0-2H40.069a7.281,7.281,0,0,0,0,2ZM48,59a6,6,0,1,1,6-6A6.006,6.006,0,0,1,48,59Zm12-5H55.931a7.281,7.281,0,0,0,0-2H60Z" fill="#000000" style="fill: rgb(102, 51, 153);"></path><rect x="30" y="43" width="4" height="2" fill="#000000" style="fill: rgb(102, 51, 153);"></rect><rect x="24" y="43" width="4" height="2" fill="#000000" style="fill: rgb(102, 51, 153);"></rect><path d="M25,40H39a1,1,0,0,0,.65-1.759l-7-6A.994.994,0,0,0,32,32H25a1,1,0,0,0-1,1v6A1,1,0,0,0,25,40Zm1-6h5.63L36.3,38H26Z" fill="#000000" style="fill: rgb(102, 51, 153);"></path><path d="M11,40H21a1,1,0,0,0,1-1V33a1,1,0,0,0-1-1H14.454a1,1,0,0,0-.866.5l-3.454,6A1,1,0,0,0,11,40Zm4.032-6H20v4H12.729Z" fill="#000000" style="fill: rgb(102, 51, 153);"></path><path d="M22.707,17.293a1,1,0,0,0-1.414,0L15,23.586l-3.293-3.293a1,1,0,0,0-1.414,0l-8,8,1.414,1.414L11,22.414l3.293,3.293a1,1,0,0,0,1.414,0L22,19.414l5.293,5.293a1,1,0,0,0,1.414,0L40,13.414V17h2V11a1,1,0,0,0-1-1H35v2h3.586L28,22.586Z" fill="#000000" style="fill: rgb(102, 51, 153);"></path><path d="M53,3a9,9,0,1,0,9,9A9.01,9.01,0,0,0,53,3Zm0,16a7,7,0,1,1,7-7A7.009,7.009,0,0,1,53,19Z" fill="#000000" style="fill: rgb(102, 51, 153);"></path><path d="M55.293,11.293l-.793.793L52.914,10.5l.793-.793a1,1,0,0,0,0-1.414l-2-2L50.293,7.707,51.586,9,50,10.586,48.707,9.293l-1.414,1.414,2,2a1,1,0,0,0,1.414,0l.793-.793L53.086,13.5l-.793.793a1,1,0,0,0,0,1.414l2,2,1.414-1.414L54.414,15,56,13.414l1.293,1.293,1.414-1.414-2-2A1,1,0,0,0,55.293,11.293Z" fill="#000000" style="fill: rgb(102, 51, 153);"></path></g></svg>