<!-- icon666.com - MILLIONS vector ICONS FREE --><svg version="1.1" id="Capa_1" xmlns="http://www.w3.org/2000/svg" xmlns:xlink="http://www.w3.org/1999/xlink" x="0px" y="0px" viewBox="0 0 512 512" style="enable-background:new 0 0 512 512;" xml:space="preserve"><g><g><path d="M452,31H120c-33.084,0-60,26.916-60,60v60c-33.084,0-60,26.916-60,60v210c0,33.084,26.916,60,60,60h332 c33.084,0,60-26.916,60-60v-60c33.084,0,60-26.916,60-60V91C512,57.916,485.084,31,452,31z M422,421c0,16.542-13.458,30-30,30H60 c-16.542,0-30-13.458-30-30V211c0-16.542,13.458-30,30-30h332c16.542,0,30,13.458,30,30V421z M482,301c0,16.542-13.458,30-30,30 V211h30V301z M482,181h-38.072c-10.391-17.916-29.769-30-51.928-30H90v-30h392V181z M90,91c0-16.542,13.458-30,30-30h332 c16.542,0,30,13.458,30,30H90z" fill="#000000" style="fill: rgb(102, 51, 153);"></path></g></g><g><g><path d="M60,211v105h120.667V211H60z M150.667,286H90v-45h60.667V286z" fill="#000000" style="fill: rgb(102, 51, 153);"></path></g></g><g><g><rect x="301.33" y="345" width="90.67" height="30" fill="#000000" style="fill: rgb(102, 51, 153);"></rect></g></g><g><g><rect x="346.67" y="211" width="45.33" height="30" fill="#000000" style="fill: rgb(102, 51, 153);"></rect></g></g><g><g><rect x="180.67" y="345" width="90.67" height="30" fill="#000000" style="fill: rgb(102, 51, 153);"></rect></g></g><g><g><rect x="60" y="345" width="90.67" height="30" fill="#000000" style="fill: rgb(102, 51, 153);"></rect></g></g></svg>