<!-- icon666.com - MILLIONS vector ICONS FREE --><svg version="1.1" id="Capa_1" xmlns="http://www.w3.org/2000/svg" xmlns:xlink="http://www.w3.org/1999/xlink" x="0px" y="0px" viewBox="0 0 480 480" style="enable-background:new 0 0 480 480;" xml:space="preserve"><g><g><path d="M436.68,137.504c-2.104-1.504-4.784-1.928-7.208-1.096L408,143.568l-21.472-7.16c-2.024-0.688-4.208-0.52-6.112,0.432 L376,139.056V136V40c0-22.056-17.944-40-40-40H144c-22.056,0-40,17.944-40,40v400c0,22.056,17.944,40,40,40h192 c22.056,0,40-17.944,40-40V208h24c22.056,0,40-17.944,40-40v-24C440,141.432,438.768,139.016,436.68,137.504z M120,40 c0-13.232,10.768-24,24-24h192c13.232,0,24,10.768,24,24v16H120V40z M360,440c0,13.232-10.768,24-24,24H144 c-13.232,0-24-10.768-24-24v-16h240V440z M360,408H120V72h240v32.208C353.296,99.128,345.04,96,336,96H208 c-22.056,0-40,17.944-40,40v136c-13.232,0-24,10.768-24,24s10.768,24,24,24h8h128h8c13.232,0,24-10.768,24-24s-10.768-24-24-24 v-64h48V408z M312,288c4.416,0,8,3.584,8,8c0,4.416-3.584,8-8,8V288z M304.016,112c-0.24,0.312-0.408,0.672-0.632,1 c-0.456,0.648-0.848,1.32-1.272,1.992c-0.848,1.368-1.624,2.776-2.304,4.248c-0.36,0.768-0.696,1.528-1,2.32 c-0.608,1.552-1.08,3.16-1.496,4.8c-0.184,0.744-0.416,1.464-0.56,2.224C296.296,130.992,296,133.456,296,136v64v104H184V136 c0-13.232,10.768-24,24-24H304.016z M168,288v16c-4.416,0-8-3.584-8-8C160,291.584,163.584,288,168,288z M312,192.008v-56 c0-13.232,10.768-24,24-24s24,10.768,24,24v16v8V168c0,2.544,0.296,5.008,0.752,7.424c0.144,0.76,0.376,1.48,0.56,2.224 c0.408,1.64,0.888,3.248,1.496,4.8c0.312,0.792,0.648,1.552,1,2.32c0.688,1.472,1.456,2.88,2.304,4.248 c0.416,0.672,0.816,1.352,1.272,1.992c0.224,0.32,0.4,0.68,0.632,1H312z M424,168c0,13.232-10.768,24-24,24s-24-10.768-24-24v-8 v-3.056l8.616-4.304l20.848,6.944c1.64,0.544,3.424,0.544,5.064,0l13.472-4.48V168z" fill="#000000" style="fill: rgb(102, 51, 153);"></path></g></g><g><g><rect x="200" y="264" width="40" height="16" fill="#000000" style="fill: rgb(102, 51, 153);"></rect></g></g><g><g><rect x="264" y="264" width="16" height="16" fill="#000000" style="fill: rgb(102, 51, 153);"></rect></g></g><g><g><rect x="200" y="232" width="40" height="16" fill="#000000" style="fill: rgb(102, 51, 153);"></rect></g></g><g><g><rect x="264" y="232" width="16" height="16" fill="#000000" style="fill: rgb(102, 51, 153);"></rect></g></g><g><g><rect x="200" y="200" width="40" height="16" fill="#000000" style="fill: rgb(102, 51, 153);"></rect></g></g><g><g><rect x="264" y="200" width="16" height="16" fill="#000000" style="fill: rgb(102, 51, 153);"></rect></g></g><g><g><rect x="200" y="168" width="40" height="16" fill="#000000" style="fill: rgb(102, 51, 153);"></rect></g></g><g><g><rect x="264" y="168" width="16" height="16" fill="#000000" style="fill: rgb(102, 51, 153);"></rect></g></g><g><g><rect x="200" y="136" width="40" height="16" fill="#000000" style="fill: rgb(102, 51, 153);"></rect></g></g><g><g><rect x="264" y="136" width="16" height="16" fill="#000000" style="fill: rgb(102, 51, 153);"></rect></g></g><g><g><rect x="184" y="336" width="16" height="16" fill="#000000" style="fill: rgb(102, 51, 153);"></rect></g></g><g><g><rect x="216" y="336" width="16" height="16" fill="#000000" style="fill: rgb(102, 51, 153);"></rect></g></g><g><g><rect x="248" y="336" width="16" height="16" fill="#000000" style="fill: rgb(102, 51, 153);"></rect></g></g><g><g><rect x="280" y="336" width="16" height="16" fill="#000000" style="fill: rgb(102, 51, 153);"></rect></g></g><g><g><rect x="184" y="368" width="16" height="16" fill="#000000" style="fill: rgb(102, 51, 153);"></rect></g></g><g><g><rect x="216" y="368" width="16" height="16" fill="#000000" style="fill: rgb(102, 51, 153);"></rect></g></g><g><g><rect x="248" y="368" width="16" height="16" fill="#000000" style="fill: rgb(102, 51, 153);"></rect></g></g><g><g><rect x="280" y="368" width="16" height="16" fill="#000000" style="fill: rgb(102, 51, 153);"></rect></g></g><g><g><rect x="32" y="232" width="16" height="16" fill="#000000" style="fill: rgb(102, 51, 153);"></rect></g></g><g><g><rect y="264" width="16" height="16" fill="#000000" style="fill: rgb(102, 51, 153);"></rect></g></g><g><g><rect y="232" width="16" height="16" fill="#000000" style="fill: rgb(102, 51, 153);"></rect></g></g><g><g><rect y="200" width="16" height="16" fill="#000000" style="fill: rgb(102, 51, 153);"></rect></g></g><g><g><rect x="432" y="232" width="16" height="16" fill="#000000" style="fill: rgb(102, 51, 153);"></rect></g></g><g><g><rect x="464" y="200" width="16" height="16" fill="#000000" style="fill: rgb(102, 51, 153);"></rect></g></g><g><g><rect x="464" y="232" width="16" height="16" fill="#000000" style="fill: rgb(102, 51, 153);"></rect></g></g><g><g><rect x="464" y="264" width="16" height="16" fill="#000000" style="fill: rgb(102, 51, 153);"></rect></g></g></svg>