<!-- icon666.com - MILLIONS vector ICONS FREE --><svg id="Layer_1" enable-background="new 0 0 511.986 511.986" viewBox="0 0 511.986 511.986" xmlns="http://www.w3.org/2000/svg"><path d="m502.414 204.251-30.255-28.628v-104.077c0-13.916-11.321-25.237-25.237-25.237h-47.596c-13.916 0-25.237 11.322-25.237 25.237v11.282l-69.117-65.4c-11.82-11.173-30.334-11.173-42.146.003l-197.45 186.82c-12.278 11.617-12.813 31.061-1.192 43.343l12.389 13.089c10.548 11.147 27.539 12.619 39.769 4.109-.23 4.174-.438 8.329-.628 12.467-.95-.023-1.902-.036-2.856-.036-30.146 0-58.486 11.739-79.802 33.055-21.317 21.315-33.056 49.656-33.056 79.802 0 30.145 11.739 58.486 33.055 79.802 21.295 21.295 49.602 33.031 79.715 33.054.031 0 .053.002.087.002h324.753c3.827 0 7.04-2.882 7.456-6.687.733-6.724 1.349-12.683 1.879-18.218.396-4.123-2.627-7.786-6.75-8.182-4.13-.395-7.786 2.627-8.182 6.75-.342 3.566-.72 7.314-1.143 11.336h-261.713c8.486-4.901 16.387-10.942 23.501-18.057 12.091-12.091 20.852-26.268 26.298-41.381 21.56 2.055 43.242 3.094 64.931 3.094 25.025 0 50.059-1.368 74.912-4.102 3.493-.384 6.251-3.143 6.635-6.635 5.465-49.703 5.465-100.106 0-149.81-.384-3.493-3.143-6.251-6.636-6.635-49.704-5.465-100.104-5.464-149.799 0-3.493.384-6.251 3.142-6.635 6.635-1.681 15.284-2.841 30.669-3.493 45.97-1.964-2.309-4.032-4.56-6.213-6.741-17.057-17.057-38.614-27.974-61.991-31.658.429-9.392.961-18.904 1.587-28.411l28.651-27.114c3.008-2.847 3.139-7.594.292-10.603-2.847-3.008-7.594-3.139-10.603-.292l-40.99 38.79c-6.271 5.933-16.201 5.657-22.138-.618l-12.389-13.089c-5.936-6.273-5.664-16.204.607-22.137l197.449-186.82c6.033-5.708 15.493-5.708 21.532 0l197.439 186.82c6.27 5.933 6.545 15.865.617 22.137l-12.39 13.091c-5.938 6.273-15.867 6.55-22.138.617l-153.218-144.988c-11.817-11.183-30.333-11.181-42.15 0l-90.469 85.61c-3.009 2.847-3.14 7.594-.293 10.603 2.846 3.008 7.594 3.139 10.603.293l90.469-85.61c6.039-5.712 15.496-5.712 21.531 0l140.877 133.31c.995 15.189 1.755 30.364 2.242 45.154 1.693 50.337.608 101.39-3.223 151.739-.314 4.13 2.779 7.733 6.909 8.047.194.015.386.022.577.022 3.884 0 7.171-2.995 7.471-6.932 3.872-50.893 4.969-102.498 3.258-153.375-.325-9.89-.781-19.959-1.335-30.082 5.251 3.66 11.381 5.479 17.504 5.479 8.138 0 16.261-3.211 22.282-9.575l12.394-13.094c11.608-12.283 11.067-31.725-1.208-43.338zm-282.824 149.207h56.8v63.086c-17.784-.198-35.554-1.094-53.242-2.705 4.272-19.988 3.085-40.917-3.558-60.381zm71.8 63.096v-63.096h63.097c-.223 19.962-1.329 39.912-3.329 59.758-19.851 2.002-39.806 3.115-59.768 3.338zm63.097-78.096h-63.097v-63.097c19.964.222 39.918 1.329 59.768 3.33 2 19.849 3.106 39.802 3.329 59.767zm-78.097-63.097v63.097h-63.093c.215-19.765 1.333-39.831 3.345-59.767 19.841-2 39.788-3.107 59.748-3.33zm-94.338 183.914c-18.483 18.483-43.057 28.662-69.195 28.662-26.139 0-50.713-10.179-69.195-28.662-18.483-18.483-28.662-43.057-28.662-69.195 0-26.139 10.179-50.713 28.662-69.195 18.482-18.483 43.057-28.662 69.195-28.662s50.712 10.179 69.195 28.662c38.155 38.154 38.154 100.235 0 138.39zm207.037-387.729c0-5.645 4.593-10.237 10.237-10.237h47.596c5.645 0 10.237 4.593 10.237 10.237v89.884l-68.07-64.409z" fill="#000000" style="fill: rgb(102, 51, 153);"></path><path d="m88.479 456.311c-.967 0-1.951-.188-2.899-.586-3.819-1.603-5.616-5.999-4.013-9.818l50.376-120.035c1.603-3.818 5.998-5.617 9.818-4.013 3.819 1.603 5.616 5.999 4.013 9.818l-50.376 120.034c-1.205 2.871-3.988 4.6-6.919 4.6z" fill="#000000" style="fill: rgb(102, 51, 153);"></path><path d="m78.839 382.411c-16.409 0-29.759-14.968-29.759-33.366s13.35-33.366 29.759-33.366 29.759 14.968 29.759 33.366-13.349 33.366-29.759 33.366zm0-51.732c-8.138 0-14.759 8.239-14.759 18.366s6.621 18.366 14.759 18.366 14.759-8.239 14.759-18.366-6.62-18.366-14.759-18.366z" fill="#000000" style="fill: rgb(102, 51, 153);"></path><path d="m146.875 464.481c-16.409 0-29.759-14.968-29.759-33.366s13.35-33.366 29.759-33.366 29.759 14.968 29.759 33.366-13.35 33.366-29.759 33.366zm0-51.732c-8.138 0-14.759 8.239-14.759 18.366s6.621 18.366 14.759 18.366 14.759-8.239 14.759-18.366-6.621-18.366-14.759-18.366z" fill="#000000" style="fill: rgb(102, 51, 153);"></path></svg>